<?xml version="1.0" encoding="utf-8"?>
<!-- Generator: Adobe Illustrator 16.0.0, SVG Export Plug-In . SVG Version: 6.00 Build 0)  -->
<!DOCTYPE svg PUBLIC "-//W3C//DTD SVG 1.1//EN" "http://www.w3.org/Graphics/SVG/1.1/DTD/svg11.dtd">
<svg version="1.1" id="Layer_1" xmlns="http://www.w3.org/2000/svg" xmlns:xlink="http://www.w3.org/1999/xlink" x="0px" y="0px"
	 width="700px" height="650px" viewBox="0 0 700 650" enable-background="new 0 0 700 650" xml:space="preserve">
<g>
	
		<linearGradient id="SVGID_1_" gradientUnits="userSpaceOnUse" x1="9.0864" y1="324" x2="678.0869" y2="324" gradientTransform="matrix(1 0 0 -1 0 649)">
		<stop  offset="0" style="stop-color:#4556A3"/>
		<stop  offset="1" style="stop-color:#25194D"/>
	</linearGradient>
	<path opacity="0.25" fill="url(#SVGID_1_)" d="M293.413,606.94c-93.524-11.603-178.145,24.102-228.406-16.959
		C14.744,548.033-1.161,429.32,15.38,332.921c16.542-95.502,65.533-167.803,115.795-225.818
		C182.073,49.081,233.608,5.345,288.323,0.883c54.719-4.46,112.611,30.35,189.598,88.366
		c77.621,58.021,173.691,139.238,195.324,250.815c21.633,111.57-31.812,253.488-108.797,294.546
		C487.467,676.563,386.301,617.651,293.413,606.94z"/>
	<g>
		<path fill="#EFEFEF" d="M681.957,127.844H398.223c-4.946,0-8.956,4.009-8.956,8.955v417.785c0,4.946,4.01,8.955,8.956,8.955
			h283.734c4.946,0,8.956-4.009,8.956-8.955V136.799C690.913,131.853,686.903,127.844,681.957,127.844z"/>
		<rect x="404.867" y="202.147" fill="#FFFFFF" width="167.009" height="242.817"/>
		<g>
			<path fill="#4895FF" d="M681.957,127.844H398.223c-4.946,0-8.956,4.009-8.956,8.955v51.531h301.646v-51.531
				C690.913,131.853,686.903,127.844,681.957,127.844z"/>
			<g>
				<text transform="matrix(1 0 0 1 422.6523 253.4136)" fill="#4895FF" font-family="'Kanit-Bold'" font-size="46.706">T</text>
				<rect x="455.681" y="226.068" fill="#375A64" width="98.59" height="5.02"/>
				<rect x="455.681" y="236.373" fill="#375A64" width="66.416" height="5.02"/>
				<rect x="455.681" y="247.179" fill="#375A64" width="98.59" height="5.018"/>
				<rect x="422.473" y="258.024" fill="#375A64" width="131.798" height="5.019"/>
				<rect x="422.473" y="268.703" fill="#375A64" width="112.43" height="5.021"/>
				<rect x="422.473" y="279.382" fill="#375A64" width="123.024" height="5.018"/>
				<rect x="422.473" y="355.924" fill="#375A64" width="131.798" height="5.021"/>
				<rect x="422.473" y="366.603" fill="#375A64" width="112.43" height="5.02"/>
				<rect x="422.473" y="377.28" fill="#375A64" width="123.024" height="5.021"/>
				<rect x="422.473" y="398.181" fill="#375A64" width="112.43" height="5.021"/>
				<rect x="422.473" y="408.859" fill="#375A64" width="123.024" height="5.021"/>
				<rect x="422.639" y="291.823" fill="#4895FF" width="131.632" height="55.76"/>
			</g>
			<rect x="582.639" y="202.147" fill="#4895FF" width="96.314" height="23.921"/>
			<rect x="582.639" y="380.357" fill="#4895FF" width="96.314" height="23.923"/>
			<rect x="404.867" y="454.967" fill="#4895FF" width="274.086" height="23.923"/>
			<rect x="582.639" y="231.223" fill="#B0B0B0" width="96.314" height="142.191"/>
			<path fill="#B0B0B0" d="M663.007,544.103H420.813c-8.806,0-15.946-7.14-15.946-15.946V478.89h274.086v49.267
				C678.953,536.963,671.813,544.103,663.007,544.103z"/>
			<g>
				<path fill="#FFFFFF" d="M414.738,150.141c1.026-0.216,2.646-0.378,4.292-0.378c2.349,0,3.859,0.405,4.994,1.323
					c0.944,0.702,1.512,1.781,1.512,3.212c0,1.755-1.161,3.293-3.078,3.995v0.054c1.729,0.432,3.752,1.863,3.752,4.562
					c0,1.565-0.621,2.753-1.538,3.644c-1.269,1.161-3.32,1.701-6.29,1.701c-1.619,0-2.86-0.108-3.644-0.216V150.141z
					 M417.087,157.591h2.133c2.482,0,3.94-1.296,3.94-3.05c0-2.132-1.62-2.969-3.995-2.969c-1.08,0-1.7,0.081-2.078,0.162V157.591z
					 M417.087,166.309c0.459,0.081,1.134,0.108,1.971,0.108c2.43,0,4.67-0.891,4.67-3.536c0-2.483-2.133-3.509-4.697-3.509h-1.943
					V166.309z"/>
				<path fill="#FFFFFF" d="M429.372,149.897h2.349v16.223h7.774v1.971h-10.123V149.897z"/>
				<path fill="#FFFFFF" d="M456.61,158.805c0,6.262-3.805,9.583-8.448,9.583c-4.805,0-8.179-3.725-8.179-9.231
					c0-5.776,3.59-9.556,8.449-9.556C453.399,149.601,456.61,153.407,456.61,158.805z M442.493,159.102
					c0,3.887,2.105,7.369,5.805,7.369c3.725,0,5.83-3.428,5.83-7.558c0-3.617-1.89-7.396-5.804-7.396
					C444.438,151.517,442.493,155.107,442.493,159.102z"/>
				<path fill="#FFFFFF" d="M473.514,167.281c-1.053,0.378-3.132,0.999-5.588,0.999c-2.753,0-5.021-0.702-6.802-2.402
					c-1.566-1.512-2.537-3.941-2.537-6.775c0.026-5.425,3.752-9.394,9.852-9.394c2.105,0,3.752,0.459,4.535,0.837l-0.566,1.917
					c-0.973-0.432-2.188-0.783-4.022-0.783c-4.427,0-7.315,2.753-7.315,7.315c0,4.616,2.781,7.342,7.019,7.342
					c1.538,0,2.591-0.216,3.132-0.486v-5.426h-3.699v-1.89h5.993V167.281z"/>
			</g>
		</g>
	</g>
	<path fill="#0062CF" d="M165.029,343.462"/>
	<path fill="#0062CF" d="M123.923,402.917"/>
	<g>
		<g>
			<g>
				<path fill="#F58760" d="M349.755,301.123v-4.709c2.115-0.451,6.09-1.529,5.579-3.16c-0.692-2.207-5.533-1.623-5.533-1.623
					s6.344-0.717,5.446-3.351c-0.632-1.853-3.718-2.222-5.492-2.28v-0.6c4.305-0.748,5.613-3.368,4.866-5.239
					c-0.749-1.871-4.866-1.498-4.866-1.498s-5.24,21.337-5.24,21.897c0,0.563,2.994,7.672,5.24,7.301
					c2.246-0.375,6.924-3.371,5.064-5.99S349.755,301.123,349.755,301.123z"/>
				<g>
					<path fill="#375A64" d="M322.298,324.973c-0.012,0.604,0.474,1.099,1.078,1.099h24.428c1.355,0,2.465-1.084,2.497-2.44
						l0.552-60.665c0.013-1.199-0.584-2.324-1.581-2.989l0,0c-0.208-0.139-0.459-0.202-0.71-0.176l-24.061,2.497
						c-0.543,0.055-0.958,0.507-0.969,1.05L322.298,324.973z"/>
					<path fill="#8EC2FF" d="M345.179,265.537v54.793c0,0.615-0.498,1.114-1.113,1.114l-17.195-0.222
						c-0.617,0-1.114-0.498-1.114-1.113l0.556-53.242c0-0.569,0.43-1.045,0.996-1.108l16.638-1.331
						C344.604,264.359,345.179,264.875,345.179,265.537z"/>
					<path fill="#231F20" d="M349.271,259.978c-0.208-0.14-0.459-0.202-0.71-0.176l-0.229,0.024l-0.692,66.246h0.163
						c1.355,0,2.465-1.084,2.497-2.44l0.552-60.665C350.865,261.768,350.269,260.642,349.271,259.978z"/>
					<ellipse fill="#231F20" cx="326.977" cy="263.893" rx="0.688" ry="0.859"/>
					<path fill="#231F20" d="M330.675,264.17c-0.338,0-0.625-0.258-0.654-0.601c-0.028-0.36,0.24-0.676,0.6-0.707l9.626-0.797
						c0.389-0.026,0.677,0.239,0.706,0.6c0.03,0.36-0.238,0.676-0.598,0.707l-9.626,0.797
						C330.71,264.17,330.691,264.17,330.675,264.17z"/>
				</g>
				<path fill="#FFBE9C" d="M327.643,326.063c2.931-5.693,1.989-11.379,2.089-14.245c0.103-2.988,5.522-9.493,6.227-15.646
					c0.703-6.156-2.991-8.793-5.102-4.75c-2.107,4.045-7.735,10.729-7.735,10.729v-18.289c0,0-1.699,1.914-3.104,2.969
					c-1.409,1.056-7.837,7.1-7.656,16.021c0.182,8.925-1.725,26.554-3.306,31.3c-1.583,4.748-4.396,8.089-4.396,8.089l15.692,7.735
					c0,0,6.814-3.164,9.381-5.45c2.564-2.285,3.766-11.604,3.766-11.604l2.547-6.858H327.643z"/>
				<polygon fill="#F58760" points="336.044,326.063 327.643,326.063 334.702,329.676 				"/>
				<g>
					<path fill="#F58760" d="M319.063,312.264c0,0-0.043-0.701,0.091-1.739c0.047-0.523,0.191-1.116,0.324-1.758
						c0.182-0.627,0.365-1.305,0.625-1.955c0.139-0.321,0.278-0.643,0.416-0.959c0.123-0.322,0.293-0.617,0.464-0.899
						c0.347-0.56,0.625-1.106,0.976-1.503c0.68-0.809,1.163-1.3,1.163-1.3s-0.302,0.641-0.799,1.53
						c-0.261,0.437-0.46,1.008-0.75,1.571c-0.298,0.559-0.499,1.213-0.771,1.832c-0.146,0.306-0.241,0.632-0.354,0.946
						c-0.115,0.314-0.229,0.623-0.338,0.922c-0.179,0.61-0.397,1.17-0.537,1.664c-0.151,0.492-0.296,0.898-0.371,1.191
						C319.114,312.097,319.063,312.264,319.063,312.264z"/>
				</g>
				<g>
					<path fill="#F58760" d="M329.784,314.852c0,0,0.336,1.184,0.339,3.025c-0.015,0.916-0.054,1.994-0.263,3.126
						c-0.088,0.569-0.218,1.15-0.374,1.734c-0.135,0.59-0.36,1.164-0.539,1.752c-0.215,0.575-0.465,1.136-0.693,1.696
						c-0.275,0.537-0.547,1.065-0.809,1.577c-0.291,0.495-0.598,0.959-0.88,1.401c-0.278,0.445-0.603,0.825-0.869,1.196
						c-0.524,0.75-1.087,1.275-1.436,1.675c-0.367,0.384-0.576,0.604-0.576,0.604s0.168-0.253,0.463-0.695
						c0.15-0.218,0.333-0.481,0.542-0.784c0.218-0.295,0.415-0.662,0.66-1.04c0.23-0.387,0.516-0.783,0.75-1.242
						c0.243-0.453,0.499-0.932,0.763-1.426c0.237-0.506,0.482-1.029,0.73-1.562c0.213-0.546,0.447-1.095,0.649-1.654
						c0.18-0.566,0.408-1.12,0.546-1.689c0.154-0.565,0.32-1.119,0.424-1.668c0.249-1.09,0.41-2.125,0.49-3.02
						c0.082-0.895,0.114-1.647,0.108-2.175C329.806,315.155,329.784,314.852,329.784,314.852z"/>
				</g>
			</g>
			<path fill="#0062CF" d="M202.347,394.999l40.749,18.328c14.714,7.675,38.009,16.894,50.701-5.351
				c0.552-0.965,1.099-1.933,1.704-2.864l32.521-49.972c0.921-1.414,0.44-3.315-1.044-4.117l-19.612-10.639
				c-1.31-0.711-2.944-0.309-3.776,0.927l-25.957,38.539c-2.388,3.725-5.14,3.551-8.838,1.125l-27.376-14.719
				c-9.139-13.857-26.37-25.515-43.401-25.509"/>
		</g>
		<g>
			<g>
				<path fill="#D99F7D" d="M70.014,464.117c2.515,5.454,7.256,9.76,12.096,12.678c1.099,0.664,2.199,1.325,3.298,1.989
					c2.158,1.301,4.313,2.603,6.47,3.904c1.27,0.762,2.538,1.528,3.806,2.294c1.011,0.609,2.682,0.404,2.982-0.944
					c0.319-1.451-0.817-2.45-1.797-3.25c-0.877-0.718-1.681-1.54-2.544-2.281c-1.802-1.554-3.522-3.202-5.319-4.764
					c-0.398-0.345-0.774-0.735-1.189-1.061c0.47,0.34,0.94,0.681,1.413,1.021c1.152,0.832,2.304,1.666,3.455,2.5
					c1.45,1.052,2.903,2.099,4.352,3.153c1.371,0.998,2.746,1.997,4.125,2.987c1,0.719,1.977,1.482,3.018,2.146
					c0.889,0.567,2.408,0.882,3.196-0.049c0.423-0.501,0.38-1.198,0.311-1.817c-0.074-0.672-0.664-1.649-1.163-2.106
					c-0.506-0.464-0.979-0.929-1.452-1.431c-1.265-1.341-2.737-2.585-4.14-3.783c-1.555-1.325-3.096-2.658-4.67-3.961
					c-1.312-1.084-2.622-2.165-3.926-3.257c-0.612-0.512-1.225-1.038-1.862-1.52c-0.013-0.009-0.026-0.015-0.039-0.023
					c0,0,18.349,14.405,18.407,14.451c1.228,0.965,4.238,2.578,5.526,0.477c0.455-0.741,0.186-2.34-0.194-3.055
					c-0.421-0.791-1.152-1.347-1.803-1.938c-1.358-1.229-2.646-2.505-4.052-3.687c-2.882-2.425-5.741-4.871-8.708-7.193
					c-0.656-0.513-1.289-1.063-1.963-1.553c2.099,1.86,4.619,3.549,6.939,5.129c2.752,1.873,4.502,3.437,6.665,4.706
					c0.565,0.329,1.327,0.919,1.995,0.926c0.965,0.01,2.226-0.229,2.712-0.959c0.689-1.035-0.051-2.965-0.986-3.773
					c-5.417-4.682-9.232-7.82-14.216-10.917c0,0-4.241-2.577-4.597-3.01c0,0,8.159,4.467,13.5,3.478c0,0,7.037-3.543-4.398-5.928
					c0,0-6.455-2.881-10.468-4.84c0,0-7.737-4.167-17.029-1.385c0,0-7.463-4.6-9.4-6.221l-7.161,9.271
					C61.201,450.522,68.161,460.095,70.014,464.117z"/>
				<g>
					<path fill="#C68C6B" d="M140.726,325.569c0,0,3.674,10.367-6.859,18.212c0,0,24.076,24.729,55.679,0
						c0,0-12.039-1.209-7.524-24.736L140.726,325.569z"/>
					<path fill="#0062CF" d="M241.418,374.261c-4.858-14.237-17.304-22.843-30.31-28.168c-7.068-2.896-14.143-5.772-21.221-8.652
						c-23.729,25.918-53.465,0-53.465,0c-4.396,2.418-8.771,4.875-13.159,7.314c-12.214,6.793-26.635,11.858-34.207,24.365
						l-34.783,60.948c0,0,3.178,22.907,12.162,28.714c0,0,5.956-12.883,24.627-10.919l-2.351-14.518l26.938-30.41l4.7,51.211h81.997
						l6.426-53.144"/>
					<path fill="#D99F7D" d="M197.427,286.79c-0.047-30.653-16.809-47.333-37.479-47.333c-20.668,0-37.432,16.68-37.478,47.333
						c-1.184,0.019-7.371,0.437-3.853,7.476c0,0,3.774,4.599,4.044,10.492c0,0,1.338,3.172,3.321,1.721
						c4.616,12.383,13.109,21.835,21.352,27.751c0,0,13.986,9.171,24.361,1.018c9.907-6.104,18.471-15.243,22.771-28.472
						c1.674,0.566,2.768-2.018,2.768-2.018c0.271-5.894,4.043-10.492,4.043-10.492C204.795,287.229,198.612,286.809,197.427,286.79z
						"/>
					<path fill="#231F20" d="M197.821,286.942c-1.227,2.606-6.881,6.19-6.27,9.566c0,0.187,0,0.187,0,0
						c-0.758-1.186,0.113-4.856,0-6.306c-0.2-2.512-0.672-4.824-1.254-7.28c-1.219-5.128-2.725-9.724-5.701-14.102
						c-3.51-5.165-7.492-8.558-14.363-8.213c-4.135,0.208-10.347,1.204-11.031,6.195c-3.523-8.377-18.586-8.254-23.58-1.318
						c-2.928,4.064-4.127,8.624-4.817,13.488c-0.415,2.927-0.583,5.901-1.147,8.778c-0.341,1.731-0.604,5.301-1.561,6.464
						c0,0-0.969-5.068-5.626-7.425c-4.593-2.322-0.441-24.92,0.546-28.278c4.734-16.131,18.838-25.55,35.011-27.263
						c8.128-0.859,16.169-2.993,24.479-2.394c-1.807,1.312-3.676,3.082-5.226,4.853c4.722-0.757,9.19-2.243,14.229-1.869
						c-2.67,1.957-1.44,4.946-2.78,7.876c5.851-0.355,10.187,6.885,13.204,11.048c-2.801-0.743-5.447-2.184-8.229-2.983
						C206.023,251.32,201.524,279.068,197.821,286.942z"/>
					<path fill="#E6E7E8" d="M136.423,337.44l-9.511,5.282c0,0,16.868,15.366,34.229,15.451c0.189,0,0.375,0,0.563-0.003
						c17.558-0.251,29.739-5.253,36.312-17.423l-8.129-3.308c0,0-13.336,11.833-24.771,11.516
						C165.116,348.956,152.927,349.561,136.423,337.44z"/>
				</g>
			</g>
			<g>
				<path fill="#231F20" d="M178.245,284.423c-2.058,0.161-4.02,0.508-5.803,1.052c-0.465,0.142-0.922,0.299-1.365,0.47
					c-8.568,2.767-15.369,1.283-18.632,0.167c-0.665-0.325-1.366-0.612-2.104-0.863l-0.004-0.002l0.002,0.001
					c-1.946-0.661-4.133-1.076-6.435-1.255c-16.118-1.258-18.731,5.482-16.019,13.447c2.404,7.064,6.225,10.68,15.129,10.68
					c8.902,0,13.422-2.404,15.129-10.68c0.283-1.37,0.339-2.625,0.199-3.773c2.144-1.898,4.283-0.979,5.54-0.077
					c-0.226,1.284-0.202,2.709,0.122,4.283c1.707,8.274,6.229,10.681,15.129,10.681s12.727-3.617,15.127-10.681
					C196.974,289.905,194.36,283.165,178.245,284.423z M156.005,297.551c-1.414,6.456-5.154,8.332-12.521,8.332
					c-7.368,0-10.533-2.822-12.523-8.332c-2.244-6.216-0.08-11.474,13.26-10.491C151.567,287.6,157.477,290.824,156.005,297.551z
					 M191.189,297.982c-1.989,5.511-5.156,8.332-12.523,8.332c-7.368,0-11.107-1.876-12.522-8.332
					c-1.473-6.728,4.438-9.951,11.786-10.491C191.271,286.508,193.433,291.768,191.189,297.982z"/>
				<polygon fill="#231F20" points="129.733,295.408 125.832,296.411 124.329,286.322 130.55,286.322 				"/>
				<polygon fill="#231F20" points="192.553,295.408 196.454,296.411 197.952,286.322 191.734,286.322 				"/>
			</g>
		</g>
		<circle fill="#231F20" cx="142.66" cy="296.271" r="4.304"/>
		<circle fill="#231F20" cx="179.104" cy="296.271" r="4.304"/>
	</g>
	<g>
		<path fill="#375A64" d="M268.035,565.434H61.114c-6.633,0-12.202-4.992-12.924-11.587L36.706,448.89
			c-0.841-7.694,5.185-14.415,12.923-14.415h229.89c7.74,0,13.766,6.721,12.924,14.415l-11.484,104.957
			C280.237,560.441,274.668,565.434,268.035,565.434z"/>
		<path fill="#231F20" d="M291.978,443.794c-1.58-5.337-6.506-9.319-12.459-9.319H49.629c-5.953,0-10.878,3.982-12.457,9.319
			H291.978z"/>
		<circle fill="#E0E0E0" cx="164.575" cy="505.893" r="11.289"/>
	</g>
	<g>
		<rect x="187.41" y="76.652" fill="#4895FF" width="115.703" height="65.649"/>
		<g>
			<circle fill="#004999" cx="245.261" cy="108.558" r="17.327"/>
			<path fill="#EFEFEF" d="M242.145,104.839v8.085c0,1.413,1.619,2.212,2.74,1.353l5.372-4.119c0.899-0.691,0.887-2.051-0.027-2.725
				l-5.368-3.965C243.735,102.636,242.145,103.439,242.145,104.839z"/>
		</g>
		<g>
			<path fill="#004999" d="M291.725,134.389h-96.33c-0.735,0-1.331-0.596-1.331-1.329l0,0c0-0.735,0.596-1.331,1.331-1.331h96.33
				c0.734,0,1.329,0.596,1.329,1.331l0,0C293.054,133.793,292.459,134.389,291.725,134.389z"/>
			<path fill="#EFEFEF" d="M291.725,131.729h-67.142v2.66h67.142c0.734,0,1.329-0.596,1.329-1.329l0,0
				C293.054,132.324,292.459,131.729,291.725,131.729z"/>
			<path fill="#004999" d="M274.44,131.729h-79.046c-0.735,0-1.331,0.596-1.331,1.331l0,0c0,0.733,0.596,1.329,1.331,1.329h79.046
				V131.729z"/>
			<g>
				<circle fill="#004999" cx="273.62" cy="133.06" r="3.315"/>
				<circle fill="#7BB1FF" cx="273.62" cy="133.06" r="1.578"/>
			</g>
		</g>
	</g>
	<g>
		<path fill="#4895FF" d="M233.99,488.351v37.672c0,3.255,2.641,5.896,5.897,5.896h68.515c1.293,0,2.551,0.425,3.58,1.213
			l15.048,11.503c3.879,2.965,9.477,0.199,9.477-4.684v-8.032v-27.634v-15.934c0-3.255-2.64-5.896-5.896-5.896h-90.723
			C236.631,482.455,233.99,485.096,233.99,488.351z"/>
		<g>
			<circle fill="#EFEFEF" cx="269.531" cy="507.931" r="3.927"/>
			<circle fill="#EFEFEF" cx="286.59" cy="507.931" r="3.926"/>
			<circle fill="#EFEFEF" cx="303.649" cy="507.931" r="3.927"/>
		</g>
	</g>
	<g>
		<path fill="#4895FF" d="M375.907,191.319v39.104c0,2.859-2.319,5.179-5.18,5.179h-77.687c-1.137,0-2.242,0.374-3.146,1.064
			L273.502,249.2c-3.407,2.604-8.324,0.175-8.324-4.113v-9.484v-27.634v-16.649c0-2.86,2.319-5.179,5.18-5.179h100.37
			C373.588,186.141,375.907,188.459,375.907,191.319z"/>
		<g>
			<circle fill="#005EB2" cx="285.249" cy="210.686" r="10.169"/>
			<g>
				<g>
					<g>
						<path fill="#FFFFFF" d="M302.782,207.437l1.677-4.943h2.708l-1.333,4.943H302.782z M306.587,207.437l1.677-4.943h2.707
							l-1.332,4.943H306.587z"/>
					</g>
				</g>
				<g>
					<g>
						<path fill="#FFFFFF" d="M353.55,219.873l1.678-4.944h2.707l-1.333,4.944H353.55z M357.354,219.873l1.677-4.944h2.708
							l-1.333,4.944H357.354z"/>
					</g>
				</g>
				<rect x="312.854" y="204.186" fill="#004999" width="52.504" height="2.344"/>
				<rect x="302.782" y="209.879" fill="#004999" width="59.649" height="2.345"/>
				<rect x="302.782" y="215.575" fill="#004999" width="49.166" height="2.342"/>
			</g>
		</g>
	</g>
	<g>
		<rect x="339.707" y="70.729" fill="#4895FF" width="75.371" height="42.766"/>
		<rect x="343.261" y="74.562" fill="#005EB2" width="67.683" height="34.915"/>
		<path fill="#004999" d="M343.261,109.477l19.179-25.741c2.085-2.799,6.271-2.821,8.384-0.044l14.076,18.492l7.757-7.293
			c2.276-2.139,5.904-1.83,7.785,0.664l10.502,13.922H343.261z"/>
		<circle fill="#FFFFFF" cx="385.515" cy="85.269" r="5.583"/>
	</g>
</g>
</svg>
